<svg preserveAspectRatio="xMidYMid meet" data-bbox="47.613 49.942 104.775 100.116" viewBox="47.613 49.942 104.775 100.116" height="200" width="200" xmlns="http://www.w3.org/2000/svg" data-type="color" role="presentation" aria-hidden="true" aria-label=""><defs><style>#comp-kbjbk7ae svg [data-color="1"] {fill: #CE5300;}
#comp-kbjbk7ae svg [data-color="2"] {fill: #000000;}</style></defs>
    <g>
        <path d="M106.126 50.179l14.183 28.739 31.715 4.608a.425.425 0 01.236.725l-22.949 22.37 5.418 31.587a.425.425 0 01-.617.448l-28.367-14.913-28.367 14.913a.425.425 0 01-.617-.448l5.418-31.587-22.949-22.37a.425.425 0 01.236-.725l31.715-4.608 14.183-28.739a.425.425 0 01.762 0z" fill="#FBE690" data-color="1"></path>
        <path d="M125.874 150.058c-.318 0-.638-.076-.931-.229l-28.199-14.825-28.199 14.825a2 2 0 01-2.902-2.108l5.386-31.4-22.814-22.239a2.002 2.002 0 011.109-3.412l31.527-4.581L94.95 57.521a2 2 0 013.588 0l14.099 28.568 31.527 4.581a2 2 0 011.109 3.412L122.46 116.32l5.386 31.4a2.003 2.003 0 01-1.972 2.338zm-29.13-19.314c.319 0 .64.076.931.229l25.543 13.429-4.879-28.442a2.007 2.007 0 01.575-1.771l20.665-20.143-28.558-4.149a2.002 2.002 0 01-1.507-1.095l-12.77-25.877-12.77 25.877a2 2 0 01-1.507 1.095l-28.558 4.149 20.665 20.143c.471.46.686 1.122.575 1.771l-4.879 28.442 25.543-13.429c.292-.153.612-.229.931-.229z" fill="#000010" data-color="2"></path>
    </g>
</svg>